<?xml version="1.0" encoding="UTF-8" standalone="no"?>
<svg width="120px" height="120px" viewBox="0 0 120 120" version="1.1" xmlns="http://www.w3.org/2000/svg" xmlns:xlink="http://www.w3.org/1999/xlink">
	<g stroke="none" stroke-width="1" fill="none" fill-rule="evenodd">
		<path d="M120,108 C120,114.6 114.6,120 108,120 L12,120 C5.4,120 0,114.6 0,108 L0,12 C0,5.4 5.4,0 12,0 L108,0 C114.6,0 120,5.4 120,12 L120,108 L120,108 Z" id="Shape" fill="#F2CF5B"/>
		<path  d="M 60.000 75.000 L 83.511 92.361 L 74.266 64.635 L 98.042 47.639 L 68.817 47.865 L 60.000 20.000 L 51.183 47.865 L 21.958 47.639 L 45.734 64.635 L 36.489 92.361 L 60.000 75.000" id="Path-1" fill="#FFFFFF"/>
    </g>
</svg>